<?xml version="1.0" encoding="UTF-8"?>
<svg id="Layer_1" data-name="Layer 1" xmlns="http://www.w3.org/2000/svg" viewBox="0 0 1215.68 228.28">
  <defs>
    <style>
      .cls-1 {
        fill: #002676;
        stroke-width: 0px;
      }
    </style>
  </defs>
  <path class="cls-1" d="M1116.42,228.28c11.62,0,22.55-8.6,44.4-54.39,14.88-32.54,26.03-61.37,37.66-90.89,3.72-9.53,5.58-11.39,11.39-13.02,4.18-1.16,5.81-2.79,5.81-5.35,0-2.32-1.39-4.42-4.88-4.42-5.11,0-11.16.7-18.13.7s-12.55-.7-17.9-.7c-3.25,0-4.88,1.86-4.88,4.18,0,2.56,1.63,4.18,5.35,5.35,10.23,2.79,11.16,7.21,7.21,19.29-6.28,19.06-13.25,37.42-23.94,61.83-9.07-22.55-16.74-42.77-24.41-65.55-2.79-8.83-1.86-12.55,9.06-15.57,4.18-1.16,5.58-2.56,5.58-5.11s-1.86-4.42-5.11-4.42c-6.97,0-14.18.7-23.71.7-10.23,0-17.67-.7-24.87-.7-3.49,0-5.11,2.09-5.11,4.42,0,2.79,1.39,4.18,5.58,5.35,5.35,1.39,6.97,3.25,10.23,11.62,12.78,31.85,24.17,59.97,39.05,98.09-9.99,18.36-17.43,22.55-27.43,24.41-8.14,1.39-13.48,6.51-13.48,13.02,0,5.35,3.72,11.16,12.55,11.16M1043.9,69.52c14.88,0,21.62,13.48,21.62,18.83,0,1.86-.93,3.25-3.02,3.72-12.55,3.25-27.66,6.28-43.47,9.06,2.79-21.15,13.25-31.61,24.87-31.61M1045.53,174.12c20.22,0,34.17-9.99,42.54-19.99,3.72-4.42,1.39-8.37-2.32-8.37-.93,0-1.86.46-2.79.93-9.76,6.04-17.43,9.3-27.89,9.3-23.01,0-36.73-20.22-36.73-43.23v-.46c22.78-3.25,45.09-7.67,68.11-13.02,3.02-.7,5.11-3.02,4.42-6.51-3.72-16.74-19.06-35.1-45.56-35.1s-50.91,24.64-50.91,60.2c0,33.47,21.62,56.25,51.14,56.25M936.98,172.26c7.67,0,15.81-.7,25.1-.7s17.9.7,25.57.7c3.49,0,5.11-2.09,5.11-4.42,0-2.56-1.63-4.88-5.58-5.35-10.46-1.16-12.32-2.32-12.32-7.21-.46-22.55-.46-43.7-.46-64.62,0-19.29,0-40.45.7-87.4,0-3.02-1.86-3.72-4.42-3.02-12.09,3.02-23.71,4.88-33.24,5.81-3.95.23-5.58,2.09-5.58,4.42,0,2.56,1.63,4.42,6.04,5.11,10.23,1.86,11.39,3.02,11.62,8.37.46,23.48.46,45.56.46,66.71s0,42.07-.46,64.62c-.23,4.88-1.63,5.81-12.09,7.21-4.18.46-5.58,2.79-5.58,5.35,0,2.32,1.63,4.42,5.11,4.42M884.44,69.52c14.88,0,21.62,13.48,21.62,18.83,0,1.86-.93,3.25-3.02,3.72-12.55,3.25-27.66,6.28-43.47,9.06,2.79-21.15,13.25-31.61,24.87-31.61M886.07,174.12c20.22,0,34.17-9.99,42.54-19.99,3.72-4.42,1.39-8.37-2.32-8.37-.93,0-1.86.46-2.79.93-9.76,6.04-17.43,9.3-27.89,9.3-23.01,0-36.73-20.22-36.73-43.23v-.46c22.78-3.25,45.09-7.67,68.11-13.02,3.02-.7,5.11-3.02,4.42-6.51-3.72-16.74-19.06-35.1-45.56-35.1s-50.91,24.64-50.91,60.2c0,33.47,21.62,56.25,51.14,56.25M718.25,172.26c7.67,0,15.34-.7,24.64-.7s17.2.7,24.87.7c3.49,0,5.11-2.09,5.11-4.42,0-2.56-1.39-4.42-5.58-5.35-10.46-1.63-11.62-2.32-11.62-7.21-.23-7.44-.23-14.88-.23-22.08,5.11-3.25,10.23-6.74,15.11-10.23,9.76,14.64,19.76,29.75,29.52,43.7,3.02,4.42,4.65,5.35,9.53,5.35,6.97,0,15.57-.23,25.57,0,3.49,0,5.35-2.09,5.35-4.65,0-2.32-.93-4.42-5.81-4.88-6.51-.7-9.99-3.95-15.57-11.16-9.76-13.25-19.99-28.36-29.52-43,0-.23.23-.23.46-.46,17.9-15.57,29.75-27.43,38.59-39.05,1.16-1.63,1.86-3.02,1.86-4.42,0-2.79-1.86-4.65-5.58-4.42-10.93.93-20.92.93-33.24.23-4.88-.23-6.28,2.09-6.28,4.42,0,2.09,1.63,4.42,4.88,5.11l4.65,1.16c7.67,1.86,7.67,8.14-1.86,18.13-10.23,10.92-23.48,21.39-37.89,30.45v-28.82c0-19.29,0-40.45.7-87.4,0-3.02-1.86-3.72-4.42-3.02-12.09,3.02-23.71,4.88-33.24,5.81-3.95.23-5.58,2.09-5.58,4.42,0,2.56,1.63,4.42,6.04,5.11,10.23,1.86,11.39,3.02,11.62,8.37.46,23.48.46,45.56.46,66.71s0,42.07-.46,64.62c-.23,4.88-1.16,5.58-11.62,7.21-4.18.93-5.58,2.79-5.58,5.35,0,2.32,1.63,4.42,5.11,4.42M632.01,172.26c7.44,0,15.34-.7,24.41-.7s19.53.7,26.96.7c3.25,0,4.88-2.09,4.88-4.42,0-2.56-1.39-4.65-6.04-5.35-11.85-1.39-13.02-2.56-13.25-7.44-.46-12.78-.46-24.17-.46-39.05v-19.53c12.09-16.04,17.67-19.29,23.71-19.29,7.21,0,13.25,9.07,16.27,9.07,1.63,0,2.56-.46,3.72-2.79,2.32-4.65,4.65-9.3,6.97-14.18,1.39-3.02.7-4.65-2.09-6.51-5.58-3.72-11.39-6.28-17.2-6.28-10.23,0-19.53,8.6-31.15,27.66,0-7.67.23-16.04.46-25.34,0-3.02-1.86-3.72-4.42-3.02-12.09,3.25-23.48,5.11-33.24,5.81-3.95.46-5.35,2.09-5.35,4.65s1.39,4.42,5.81,5.11c10.23,1.86,11.39,3.02,11.62,8.14.46,11.62.46,23.94.46,36.49,0,14.88,0,26.27-.46,39.05-.23,4.88-.93,6.04-11.16,7.44-4.18.93-5.58,2.79-5.58,5.35,0,2.32,1.63,4.42,5.11,4.42M575.53,69.52c14.88,0,21.62,13.48,21.62,18.83,0,1.86-.93,3.25-3.02,3.72-12.55,3.25-27.66,6.28-43.47,9.06,2.79-21.15,13.25-31.61,24.87-31.61M577.15,174.12c20.22,0,34.17-9.99,42.54-19.99,3.72-4.42,1.39-8.37-2.32-8.37-.93,0-1.86.46-2.79.93-9.76,6.04-17.43,9.3-27.89,9.3-23.01,0-36.73-20.22-36.73-43.23v-.46c22.78-3.25,45.09-7.67,68.11-13.02,3.02-.7,5.11-3.02,4.42-6.51-3.72-16.74-19.06-35.1-45.56-35.1s-50.91,24.64-50.91,60.2c0,33.47,21.62,56.25,51.14,56.25M435.36,159.47c-6.97-1.63-9.3-3.95-9.53-12.32-.46-17.67-.46-31.38-.46-56.48v-.46c39.52-.93,60.2,7.9,60.2,36.73,0,16.97-12.09,33.94-36.49,33.94-6.28,0-10.23-.46-13.71-1.39M425.83,30c0-4.65,1.16-6.51,4.65-7.9,2.79-.93,6.97-1.39,13.48-1.39,19.29,0,31.15,10.46,31.15,30.91,0,11.39-3.72,20.92-9.76,28.13-11.85-2.09-25.34-2.79-39.98-2.09,0-18.36,0-31.61.46-47.65M452.8,173.65c38.59,0,61.6-22.55,61.6-48.81,0-20.69-12.55-33.94-33.24-41.14,11.62-6.97,21.62-19.76,21.62-35.1,0-24.87-20.69-40.21-56.95-40.21-15.57,0-19.29,1.39-33.94,1.39s-24.41-1.16-30.45-1.16c-3.72,0-5.58,2.09-5.58,5.11,0,2.56,1.39,4.65,6.28,5.58,12.55,1.86,15.57,4.42,15.57,10.69.23,19.76.46,34.63.46,60.67s0,41.38-.46,61.13c-.23,6.74-2.56,8.6-15.11,9.76-4.88.7-6.28,3.02-6.28,5.58,0,3.02,1.86,5.11,5.58,5.11,9.06,0,17.67-.46,29.99-.46,11.62,0,22.31,1.86,40.91,1.86M263.82,175.05c19.76,0,38.12-5.58,55.55-16.97,4.88-3.02,6.28-6.28,6.28-9.53,0-6.28.46-12.09.23-17.2-.23-3.95-2.09-6.28-5.35-6.28-2.56,0-4.42,1.63-5.35,5.11-6.04,20.22-24.17,31.15-47.19,31.15-33.94,0-59.51-28.13-59.51-70.66s24.17-71.13,59.97-71.13c23.24,0,37.19,8.6,44.86,26.73,1.63,3.72,3.02,5.58,6.04,5.58,3.25,0,4.65-2.32,4.88-6.04.23-5.35.23-13.71.23-18.83,0-3.49-1.16-6.28-6.28-9.06-12.32-6.74-29.52-11.62-47.88-11.62-54.39,0-91.58,37.42-91.58,86.94s34.87,81.82,85.08,81.82M87.17,175.05c40.21,0,66.71-24.87,66.71-68.8v-15.57c0-26.27,0-41.61.23-62.76.23-4.88,2.56-6.97,15.34-8.14,4.42-.7,5.81-3.02,5.81-5.58,0-3.02-1.86-5.11-5.35-5.11-7.44,0-14.64.7-23.94.7s-16.97-.7-24.64-.7c-3.49,0-5.35,2.09-5.35,5.11,0,2.32,1.39,4.65,6.04,5.35,13.48,1.39,15.81,3.49,15.81,8.37.46,21.15.46,36.49.46,62.76v13.71c0,34.4-16.97,51.84-45.33,51.84s-44.16-18.13-44.16-50.21v-15.34c0-26.27,0-41.61.46-62.76,0-4.88,2.32-6.97,15.11-8.14,4.65-.7,6.04-3.02,6.04-5.58,0-3.02-1.86-5.11-5.58-5.11-8.83,0-17.67.7-29.75.7s-20.69-.7-29.75-.7c-3.49,0-5.35,2.09-5.35,5.11,0,2.56,1.39,4.88,6.04,5.58,12.78,1.16,15.11,3.25,15.11,8.14.46,21.15.46,36.49.46,62.76v18.36c0,43.47,25.1,66.01,65.55,66.01"/>
</svg>